<?xml version="1.0" encoding="utf-8"?>
<!-- Generator: Adobe Illustrator 24.1.0, SVG Export Plug-In . SVG Version: 6.00 Build 0)  -->
<svg version="1.1" id="Layer_1" xmlns="http://www.w3.org/2000/svg" xmlns:xlink="http://www.w3.org/1999/xlink" x="0px" y="0px"
	 viewBox="0 0 128 127.9" style="enable-background:new 0 0 128 127.9;" xml:space="preserve">
<style type="text/css">
	.st0{fill:#656D6D;}
	.st1{fill:#FFFFFF;}
</style>
<path class="st0" d="M128,64c0,0.8,0,1.7,0,2.5c0,0.8-0.1,1.6-0.1,2.4c-0.1,1.4-0.2,2.7-0.4,4c-0.1,0.8-0.2,1.6-0.4,2.3
	c-0.1,0.8-0.3,1.6-0.5,2.4c-0.2,0.7-0.3,1.5-0.5,2.2c-0.1,0.5-0.3,1-0.4,1.4c-3.8,13.5-12,25.2-22.8,33.5c-0.4,0.3-0.8,0.6-1.2,0.9
	c-0.6,0.4-1.2,0.9-1.8,1.3c-0.7,0.5-1.4,0.9-2.1,1.3c-0.7,0.4-1.3,0.8-2,1.2c-1.2,0.7-2.4,1.3-3.6,1.9c-0.7,0.4-1.5,0.7-2.2,1
	c-1.5,0.7-3.1,1.3-4.7,1.9c-6.6,2.3-13.7,3.6-21.1,3.6c-1.2,0-2.3,0-3.5-0.1c-0.7,0-1.4-0.1-2.1-0.2c-4.3-0.4-8.4-1.2-12.4-2.3
	c-0.6-0.2-1.1-0.3-1.7-0.5c-1-0.3-2-0.7-2.9-1c-0.7-0.3-1.5-0.6-2.2-0.9c-4.5-1.9-8.8-4.3-12.8-7.2c-0.6-0.4-1.2-0.9-1.8-1.4
	c-0.8-0.6-1.6-1.3-2.4-2c-0.5-0.4-0.9-0.8-1.4-1.2C8,99.5,0,82.7,0,64c0-17.2,6.9-32.9,18-44.4c0.2-0.2,0.4-0.5,0.7-0.7
	c0.3-0.3,0.6-0.6,0.9-0.9c0.2-0.2,0.4-0.4,0.7-0.6c0.5-0.4,0.9-0.8,1.4-1.2c0.2-0.2,0.5-0.4,0.8-0.7c2.2-1.9,4.5-3.6,6.9-5.2
	c0.3-0.2,0.6-0.4,0.8-0.5c0.5-0.3,1-0.6,1.6-1c0.3-0.2,0.6-0.4,0.9-0.5c0.4-0.2,0.7-0.4,1.1-0.6c0.2-0.1,0.5-0.3,0.7-0.4
	C43.2,2.7,53.3,0,64,0c34.4,0,62.6,27.3,64,61.4C128,62.3,128,63.1,128,64z"/>
<path class="st1" d="M101.6,44c1-5.2,1.9-10.4,2.9-15.6c1.5,6,3,11.9,4.4,17.9C106.5,45.6,104.1,44.8,101.6,44z"/>
<path class="st1" d="M104.1,55l7.8-0.3c-0.9-5-1.9-10-2.8-15c-1,0.8-1.9,1.5-2.9,2.3L104.1,55z"/>
<path class="st1" d="M55.7,91c-4.8-2.3-9.5-4.6-14.3-6.9l18.4,0.5C58.5,86.8,57.1,88.9,55.7,91z"/>
<path class="st1" d="M66.9,91.6l1.8-7.6c-5.1-0.4-10.2-0.9-15.2-1.3c0.5,1.1,1,2.3,1.5,3.4L66.9,91.6z"/>
<path class="st1" d="M68.7,120.6c-2.7,2.4-5.5,4.9-8.2,7.3c-0.7,0-1.4-0.1-2.1-0.2c1.2-2.8,2.5-5.5,3.7-8.3c0.8-1.7,1.5-3.4,2.3-5.2
	c0.6,0.9,1.2,1.9,1.9,2.8C67.1,118.2,67.9,119.4,68.7,120.6z"/>
<path class="st1" d="M73.5,110.5l-6.4-4.6c-2.4,4.5-4.7,9-7.1,13.6c1.2,0,2.5,0,3.7-0.1L73.5,110.5z"/>
<path class="st1" d="M111.2,70c-14.4,0-26.1,11.7-26.1,26.1c0,9.5,5,17.7,12.6,22.3c0.7-0.4,1.4-0.9,2.1-1.3
	c-7.4-4.1-12.5-11.9-12.5-21c0-13.2,10.7-23.9,23.9-23.9c5.8,0,11.2,2.1,15.3,5.5c0.2-0.8,0.3-1.6,0.5-2.4
	C122.6,72,117.1,70,111.2,70z"/>
<path class="st1" d="M111.2,64.3c-8.5,0-16.5,3.3-22.5,9.3s-9.3,14-9.3,22.5s3.3,16.5,9.3,22.5c1.1,1.1,2.2,2,3.4,2.9
	c1.2-0.6,2.4-1.2,3.6-1.9c-7.6-5-12.7-13.7-12.7-23.5c0-15.6,12.7-28.2,28.2-28.2c6,0,11.6,1.9,16.2,5.1c0.2-1.3,0.3-2.7,0.4-4
	C122.9,65.9,117.2,64.3,111.2,64.3z"/>
<path class="st1" d="M128,61.4c-5.1-2.5-10.8-3.8-16.8-3.8c-10.3,0-19.9,4-27.2,11.3c-7.3,7.2-11.3,16.9-11.3,27.2
	c0,10.3,4,19.9,11.3,27.2c0.4,0.4,0.8,0.8,1.1,1.1c1.6-0.6,3.2-1.2,4.7-1.9c-7.7-6.2-12.7-15.8-12.7-26.4c0-18.7,15.3-34,34-34
	c6.1,0,11.8,1.6,16.8,4.4c0-0.8,0-1.7,0-2.5C128,63.1,128,62.3,128,61.4z"/>
<path class="st1" d="M111.2,74.2c-12.1,0-21.9,9.8-21.9,21.9c0,8.7,5,16.1,12.3,19.7c0.4-0.3,0.8-0.6,1.2-0.9
	c-7.2-3.2-12.2-10.5-12.2-18.8c0-11.3,9.2-20.6,20.6-20.6c5.6,0,10.7,2.2,14.4,5.9c0.1-0.5,0.3-1,0.4-1.4
	C122.1,76.4,116.9,74.2,111.2,74.2z"/>
<path class="st1" d="M67.6,1c-11.2,0-20.3,9.1-20.3,20.3s9.1,20.3,20.3,20.3s20.3-9.1,20.3-20.3S78.8,1,67.6,1z M67.6,40.6
	C57,40.6,48.4,32,48.4,21.4c0-10.6,8.6-19.2,19.2-19.2c10.6,0,19.2,8.6,19.2,19.2C86.8,32,78.2,40.6,67.6,40.6z"/>
<path class="st1" d="M67.6,3.8c-9.6,0-17.5,7.8-17.5,17.5S58,38.8,67.6,38.8c9.7,0,17.5-7.8,17.5-17.5S77.2,3.8,67.6,3.8z
	 M67.6,37.8c-9.1,0-16.5-7.4-16.5-16.5c0-9.1,7.4-16.5,16.5-16.5c9.1,0,16.5,7.4,16.5,16.5C84.1,30.4,76.7,37.8,67.6,37.8z"/>
<path class="st1" d="M67.6,6.6C59.5,6.6,53,13.2,53,21.3C53,29.4,59.5,36,67.6,36c8.1,0,14.7-6.6,14.7-14.7
	C82.3,13.2,75.7,6.6,67.6,6.6z M67.6,35.1c-7.6,0-13.8-6.2-13.8-13.8c0-7.6,6.2-13.8,13.8-13.8c7.7,0,13.8,6.2,13.8,13.8
	C81.4,28.9,75.2,35.1,67.6,35.1z"/>
<path class="st1" d="M67.6,9.6c-6.5,0-11.8,5.3-11.8,11.8s5.3,11.8,11.8,11.8c6.6,0,11.9-5.4,11.8-11.8C79.4,14.9,74.1,9.6,67.6,9.6
	z M67.6,32.5c-6.2,0-11.2-5-11.2-11.2s5-11.2,11.2-11.2s11.2,5.1,11.2,11.2C78.8,27.5,73.8,32.5,67.6,32.5z"/>
<path class="st1" d="M30.1,34.5C17.7,34.5,7.6,44.6,7.6,57s10.1,22.5,22.5,22.5c12.4,0,22.5-10.1,22.5-22.5S42.5,34.5,30.1,34.5z
	 M30.1,78.2C18.4,78.2,8.9,68.7,8.9,57s9.5-21.2,21.2-21.2S51.3,45.3,51.3,57S41.8,78.2,30.1,78.2z"/>
<path class="st1" d="M30.1,37.6c-10.7,0-19.4,8.7-19.4,19.4s8.7,19.4,19.4,19.4S49.5,67.7,49.5,57S40.8,37.6,30.1,37.6z M30.1,75.3
	C20,75.3,11.8,67.1,11.8,57S20,38.7,30.1,38.7c10.1,0,18.3,8.2,18.3,18.3S40.2,75.3,30.1,75.3z"/>
<path class="st1" d="M30.1,40.8c-8.9,0-16.2,7.2-16.2,16.2c0,8.9,7.2,16.2,16.2,16.2S46.4,66,46.4,57S39,40.8,30.1,40.8z M30.1,72.3
	c-8.4,0-15.3-6.9-15.3-15.3s6.9-15.3,15.3-15.3c8.5,0,15.3,6.9,15.3,15.3S38.5,72.3,30.1,72.3z"/>
<path class="st1" d="M30.1,43.9C22.9,43.9,17,49.8,17,57s5.9,13.1,13.1,13.1c7.3,0,13.1-5.9,13.1-13.1S37.3,43.9,30.1,43.9z
	 M30.1,69.4c-6.8,0-12.4-5.6-12.4-12.4s5.6-12.4,12.4-12.4S42.5,50.2,42.5,57S36.9,69.4,30.1,69.4z"/>
<path class="st1" d="M39.4,88.9c-10.4,0-18.9,8.4-18.9,18.8c0,1.2,0.1,2.4,0.3,3.5c0.5,0.4,0.9,0.8,1.4,1.2
	c-0.4-1.5-0.6-3.1-0.6-4.7c0-9.8,8-17.8,17.8-17.8s17.8,7.9,17.8,17.8c0,8.1-5.5,15-12.9,17.1c0.5,0.2,1.1,0.4,1.7,0.5
	c7.2-2.7,12.3-9.5,12.3-17.6C58.3,97.4,49.8,88.9,39.4,88.9z"/>
<path class="st1" d="M39.4,91.6c-8.9,0-16.2,7.3-16.2,16.2c0,2.4,0.5,4.6,1.4,6.6c0.6,0.5,1.2,0.9,1.8,1.4c-1.5-2.3-2.3-5.1-2.3-8.1
	c0-8.4,6.9-15.3,15.3-15.3s15.3,6.9,15.3,15.3c0,8.4-6.9,15.3-15.3,15.3c-0.1,0-0.1,0-0.2,0c0.7,0.3,1.5,0.6,2.2,0.9
	c8-1,14.2-7.8,14.2-16.1C55.6,98.9,48.3,91.6,39.4,91.6z"/>
<path class="st1" d="M39.4,94.2c-7.5,0-13.6,6.1-13.6,13.6s6.1,13.6,13.6,13.6S53,115.3,53,107.8C53,100.2,46.9,94.2,39.4,94.2z
	 M39.4,120.6c-7.1,0-12.9-5.7-12.9-12.8c0-7.1,5.8-12.9,12.9-12.9s12.8,5.8,12.8,12.9C52.2,114.8,46.5,120.6,39.4,120.6z"/>
<path class="st1" d="M39.4,96.8c-6.1,0-11,4.9-11,11c0,6.1,4.9,11,11,11c6,0,11-5,11-11C50.4,101.7,45.5,96.8,39.4,96.8z
	 M39.4,118.2c-5.7,0-10.4-4.7-10.4-10.4s4.7-10.4,10.4-10.4s10.4,4.6,10.4,10.4C49.8,113.5,45.1,118.2,39.4,118.2z"/>
<path class="st1" d="M13.9,79.9c-4.3,0-7.8,3.5-7.8,7.8s3.5,7.8,7.8,7.8s7.8-3.5,7.8-7.8S18.2,79.9,13.9,79.9z M13.9,95.1
	c-4.1,0-7.4-3.3-7.4-7.4c0-4.1,3.3-7.4,7.4-7.4s7.4,3.3,7.4,7.4C21.3,91.8,18,95.1,13.9,95.1z"/>
<path class="st1" d="M13.9,81c-3.7,0-6.7,3-6.7,6.7s3,6.7,6.7,6.7s6.7-3,6.7-6.7S17.6,81,13.9,81z M13.9,94.1
	c-3.6,0-6.4-2.9-6.4-6.4c0-3.6,2.9-6.4,6.4-6.4s6.3,2.9,6.4,6.4C20.3,91.3,17.5,94.1,13.9,94.1z"/>
<path class="st1" d="M13.9,82c-3.2,0-5.7,2.6-5.7,5.7c0,3.1,2.6,5.6,5.7,5.6s5.6-2.5,5.6-5.6C19.5,84.5,17.1,82,13.9,82z M13.9,92.9
	c-2.9,0-5.3-2.4-5.3-5.3c0-2.9,2.4-5.3,5.3-5.3s5.3,2.4,5.3,5.3C19.2,90.5,16.8,92.9,13.9,92.9z"/>
<path class="st1" d="M13.9,83c-2.6,0-4.6,2.1-4.6,4.6c0,2.6,2.1,4.6,4.6,4.6s4.5-2,4.6-4.6C18.5,85,16.5,83,13.9,83z M13.9,92
	c-2.4,0-4.3-1.9-4.3-4.3c0-2.4,1.9-4.3,4.3-4.3s4.3,1.9,4.3,4.3C18.2,90.1,16.3,92,13.9,92z"/>
<path class="st1" d="M68.5,51c-4.3,0-7.8,3.5-7.8,7.8s3.5,7.8,7.8,7.8c4.3,0,7.8-3.5,7.8-7.8S72.8,51,68.5,51z M68.5,66.2
	c-4.1,0-7.4-3.3-7.4-7.4c0-4.1,3.3-7.4,7.4-7.4c4.1,0,7.4,3.3,7.4,7.4C75.9,62.9,72.6,66.2,68.5,66.2z"/>
<path class="st1" d="M68.5,52.1c-3.7,0-6.7,3-6.7,6.7s3,6.7,6.7,6.7c3.7,0,6.7-3,6.7-6.7S72.2,52.1,68.5,52.1z M68.5,65.3
	c-3.6,0-6.4-2.9-6.4-6.4c0-3.6,2.9-6.4,6.4-6.4s6.4,2.8,6.4,6.4C74.9,62.5,72,65.3,68.5,65.3z"/>
<path class="st1" d="M68.5,53.2c-3.2,0-5.7,2.6-5.7,5.7c0,3.1,2.6,5.6,5.7,5.6c3.1,0,5.7-2.6,5.6-5.6C74.1,55.7,71.6,53.2,68.5,53.2
	z M68.5,64.1c-2.9,0-5.3-2.4-5.3-5.3c0-2.9,2.4-5.3,5.3-5.3c2.9,0,5.3,2.4,5.3,5.3C73.8,61.7,71.4,64.1,68.5,64.1z"/>
<path class="st1" d="M68.5,54.2c-2.6,0-4.6,2.1-4.6,4.6c0,2.6,2.1,4.6,4.6,4.6s4.6-2.1,4.6-4.6C73.1,56.2,71,54.2,68.5,54.2z
	 M68.5,63.1c-2.4,0-4.3-1.9-4.3-4.3c0-2.4,1.9-4.3,4.3-4.3c2.4,0,4.3,1.9,4.3,4.3C72.8,61.2,70.9,63.1,68.5,63.1z"/>
<path class="st1" d="M91.8,34.3c-4.3,0-7.8,3.5-7.8,7.8c0,4.3,3.5,7.8,7.8,7.8c4.3,0,7.8-3.5,7.8-7.8C99.6,37.8,96.1,34.3,91.8,34.3
	z M91.8,49.5c-4.1,0-7.4-3.3-7.4-7.4c0-4.1,3.3-7.4,7.4-7.4c4,0,7.3,3.3,7.4,7.4C99.2,46.2,95.9,49.5,91.8,49.5z"/>
<path class="st1" d="M91.8,35.4c-3.7,0-6.7,3-6.7,6.7c0,3.7,3,6.7,6.7,6.7c3.7,0,6.7-3,6.7-6.7C98.5,38.4,95.5,35.4,91.8,35.4z
	 M91.8,48.5c-3.6,0-6.4-2.9-6.4-6.4c0-3.6,2.9-6.4,6.4-6.4s6.3,2.8,6.4,6.4C98.2,45.7,95.3,48.5,91.8,48.5z"/>
<path class="st1" d="M91.8,36.3c-3.2,0-5.7,2.6-5.7,5.7c0,3.2,2.6,5.7,5.7,5.7c3.1,0,5.6-2.5,5.6-5.7S94.9,36.3,91.8,36.3z
	 M91.8,47.3c-2.9,0-5.3-2.4-5.3-5.3s2.4-5.3,5.3-5.3c2.9,0,5.3,2.4,5.3,5.3S94.7,47.3,91.8,47.3z"/>
<path class="st1" d="M91.8,37.4c-2.6,0-4.6,2.1-4.6,4.6c0,2.6,2.1,4.6,4.6,4.6s4.5-2,4.6-4.6C96.4,39.4,94.3,37.4,91.8,37.4z
	 M91.8,46.3c-2.4,0-4.3-1.9-4.3-4.3s1.9-4.3,4.3-4.3c2.3,0,4.3,2,4.3,4.3C96.1,44.4,94.2,46.3,91.8,46.3z"/>
<path class="st1" d="M71.9,69.5c-0.1-0.1-0.3-0.1-0.4-0.2l-12.3,3.2c5.2,0.9,10.4,1.8,15.6,2.6c0.3-1,0.6-2,0.9-3
	c-0.3-0.1-0.7-0.3-1-0.4C73.8,70.9,72.8,70.2,71.9,69.5z"/>
<path class="st1" d="M81,66.3l7.5-2.1c-2.1-4.7-4.1-9.3-6.2-14c-0.4,0.5-0.8,1.1-1.2,1.6c0,0,0-0.1-0.1-0.1c0,0.1-0.1,0.3-0.1,0.4
	c-0.5,1.1-1,2.2-1.5,3.3c-0.1,0.4-0.1,0.7-0.2,1.1c0.4,0,0.7,0.1,1.1,0.1L81,66.3z"/>
<path class="st1" d="M113,95.4l-2,2.8l-4.9-3.1c-1.2-0.7-2.2-1.4-3.1-2c-0.7-0.5-1.3-0.9-1.9-1.4l7.1,7.7l-1.9,2.7l-9.8-3.9
	c1.1,0.6,2,1.3,2.9,1.9c0.7,0.5,1.4,1,2.1,1.5l4.5,3.5l-2,2.8l-11.4-9.4l2.5-3.6l9.4,3.9l-7-7.4l2.5-3.6L113,95.4z"/>
<path class="st1" d="M120.9,85.9c-0.5-0.3-1.1-0.5-1.7-0.5c-0.6,0-1.2,0.2-1.8,0.6c-0.7,0.4-1.2,0.9-1.7,1.6l-1,1.4
	c-0.3,0.4-0.6,0.6-0.7,0.7c-0.1,0.1-0.3,0-0.5-0.1c-0.1-0.1-0.1-0.2-0.2-0.3c-0.1-0.2-0.1-0.3-0.1-0.4c0.3-0.3,0.5-0.6,0.8-1
	c0.5-0.7,0.9-1.5,1-2.3c0.1-0.7,0-1.5-0.2-2.1c-0.3-0.7-0.7-1.2-1.3-1.6c-0.6-0.4-1.1-0.6-1.7-0.6c-0.6,0.1-1.2,0.3-1.9,0.7
	c0.8-1.2,1.3-2.1,1.5-2.9l-2.2-0.9c-0.1,0.9-0.3,1.8-0.5,2.6c-0.3,0.8-0.7,1.7-1.4,2.6c-0.9,1.2-1.3,2.4-1.2,3.6
	c0.1,1.1,0.7,2.1,1.7,2.8c0.6,0.4,1.2,0.7,1.8,0.7c0.6,0,1.3-0.1,2-0.5c-0.1,0.5,0,1,0.2,1.4c0.2,0.4,0.5,0.8,0.8,1
	c0.5,0.4,1.1,0.4,1.8,0.2c0.7-0.3,1.3-0.8,2-1.8l0.9-1.3c0.3-0.4,0.6-0.7,0.9-0.8c0.3-0.1,0.6-0.1,0.9,0.1c0.4,0.3,0.5,0.6,0.5,1
	c0,0.5-0.3,1-0.8,1.8c-0.4,0.6-0.7,1-1,1.2c-0.3,0.2-0.6,0.3-0.8,0.3c-0.3,0-0.5-0.1-0.8-0.3l-1.7,2.5c0.7,0.4,1.3,0.7,1.9,0.7
	c0.7,0,1.3-0.2,2-0.7s1.4-1.3,2.2-2.4c1.1-1.6,1.7-3,1.7-4.2S121.9,86.6,120.9,85.9z M112,87c-0.3,0.4-0.7,0.6-1.1,0.7
	c-0.4,0.1-0.9-0.1-1.4-0.4c-0.5-0.4-0.8-0.8-0.9-1.2c-0.1-0.5,0.1-0.9,0.3-1.3c0.7-0.9,1.5-1,2.5-0.3c0.5,0.4,0.8,0.8,0.9,1.2
	C112.4,86.1,112.3,86.5,112,87z"/>
<path class="st1" d="M14.2,87.6c0-0.5-0.1-1-0.4-1.3c-0.3-0.3-0.7-0.5-1.2-0.5c-0.4,0-0.6,0-0.9,0.2s-0.5,0.4-0.6,0.7
	c-0.1,0.3-0.2,0.6-0.2,1c0,0.6,0.2,1.1,0.5,1.4c0.3,0.3,0.7,0.5,1.3,0.5c0.5,0,1-0.2,1.4-0.5l-0.4-0.6c-0.1,0.1-0.3,0.1-0.4,0.2
	c-0.1,0.1-0.3,0.1-0.4,0.1c-0.3,0-0.5-0.1-0.6-0.2C12.1,88.5,12,88.3,12,88h2.2V87.6z M12,87.4c0-0.4,0.1-0.6,0.2-0.7
	c0.1-0.1,0.2-0.2,0.4-0.2c0.4,0,0.6,0.3,0.6,0.8L12,87.4z"/>
<path class="st1" d="M16.8,87h-2.1v0.8h2.1V87z"/>
<path class="st1" d="M68.8,58.7c0-0.5-0.1-1-0.4-1.3c-0.3-0.3-0.7-0.5-1.2-0.5c-0.4,0-0.7,0-0.9,0.2c-0.3,0.2-0.5,0.4-0.6,0.7
	c-0.1,0.3-0.2,0.6-0.2,1c0,0.6,0.2,1.1,0.5,1.4c0.3,0.3,0.7,0.5,1.3,0.5c0.5,0,1-0.2,1.4-0.5l-0.4-0.6c-0.1,0.1-0.3,0.1-0.4,0.2
	c-0.1,0.1-0.3,0.1-0.4,0.1c-0.3,0-0.5-0.1-0.6-0.2c-0.2-0.1-0.3-0.3-0.3-0.6h2.2C68.8,59,68.9,58.9,68.8,58.7z M66.6,58.5
	c0-0.3,0.1-0.6,0.2-0.7c0.1-0.1,0.2-0.2,0.4-0.2c0.4,0,0.6,0.3,0.6,0.8L66.6,58.5z"/>
<path class="st1" d="M71.4,58.1h-2.1v0.8h2.1V58.1z"/>
<path class="st1" d="M92.1,42c0-0.5-0.1-1-0.4-1.3s-0.7-0.5-1.2-0.5c-0.4,0-0.7,0-0.9,0.2c-0.3,0.2-0.5,0.4-0.6,0.7
	c-0.1,0.3-0.2,0.6-0.2,1c0,0.6,0.2,1.1,0.5,1.4c0.3,0.3,0.7,0.5,1.3,0.5c0.5,0,1-0.2,1.4-0.5l-0.4-0.6c-0.1,0.1-0.3,0.1-0.4,0.2
	c-0.1,0.1-0.3,0.1-0.4,0.1c-0.3,0-0.5-0.1-0.6-0.2c-0.2-0.1-0.3-0.3-0.3-0.6h2.2V42z M89.9,41.8c0-0.3,0.1-0.6,0.2-0.7
	c0.1-0.1,0.2-0.2,0.4-0.2c0.4,0,0.6,0.3,0.6,0.8L89.9,41.8z"/>
<path class="st1" d="M94.7,41.3h-2.1v0.8h2.1V41.3z"/>
<path class="st1" d="M118.8,43c-2.9,0-5.3,2.4-5.3,5.3c0,2.9,2.4,5.3,5.3,5.3c2.9,0,5.2-2.3,5.3-5.3C124.1,45.4,121.7,43,118.8,43z
	 M118.8,53.4c-2.8,0-5-2.3-5-5c0-2.8,2.3-5,5-5c2.7,0,4.9,2.2,5,5C123.8,51.2,121.5,53.4,118.8,53.4z"/>
<path class="st1" d="M118.8,43.9c-2.5,0-4.5,2-4.5,4.5s2,4.5,4.5,4.5s4.5-2,4.5-4.5S121.3,43.9,118.8,43.9z M118.8,52.7
	c-2.4,0-4.3-1.9-4.3-4.3c0-2.4,1.9-4.3,4.3-4.3c2.3,0,4.3,1.9,4.3,4.3C123.1,50.8,121.2,52.7,118.8,52.7z"/>
<path class="st1" d="M118.8,44.6c-2.1,0-3.8,1.7-3.8,3.8c0,2.1,1.7,3.8,3.8,3.8c2.1,0,3.8-1.7,3.8-3.8
	C122.6,46.3,120.9,44.6,118.8,44.6z M118.8,52c-2,0-3.6-1.6-3.6-3.6s1.6-3.6,3.6-3.6c1.9,0,3.6,1.6,3.6,3.6S120.8,52,118.8,52z"/>
<path class="st1" d="M118.8,45.2c-1.7,0-3.1,1.4-3.1,3.1s1.4,3.1,3.1,3.1c1.7,0,3-1.4,3.1-3.1C121.9,46.6,120.5,45.2,118.8,45.2z
	 M118.8,51.2c-1.6,0-2.9-1.3-2.9-2.9c0-1.6,1.3-2.9,2.9-2.9c1.6,0,2.9,1.4,2.9,2.9C121.7,49.9,120.4,51.2,118.8,51.2z"/>
<path class="st1" d="M119.1,48.1c0-0.4-0.1-0.7-0.3-0.9c-0.2-0.2-0.5-0.3-0.8-0.3c-0.2,0-0.4,0.1-0.6,0.2c-0.2,0.2-0.3,0.3-0.4,0.5
	c-0.1,0.2-0.1,0.5-0.1,0.7c0,0.4,0.1,0.7,0.3,0.9s0.5,0.3,0.9,0.3c0.3,0,0.6-0.1,0.9-0.3l-0.3-0.4c-0.1,0.1-0.2,0.2-0.3,0.2
	c-0.1,0.1-0.2,0.1-0.3,0.1c-0.2,0-0.3,0-0.4-0.1c-0.1-0.1-0.2-0.2-0.2-0.4h1.5C119,48.5,119,48.4,119.1,48.1z M117.5,48.1
	c0-0.2,0-0.3,0.1-0.4c0.1-0.1,0.2-0.1,0.3-0.1c0.3,0,0.4,0.1,0.4,0.5H117.5z"/>
<path class="st1" d="M120.7,47.9h-1.4v0.5h1.4V47.9z"/>
<path class="st1" d="M98.1,14.5c-2.9,0-5.3,2.4-5.3,5.3c0,2.9,2.4,5.3,5.3,5.3c2.9,0,5.3-2.3,5.3-5.3C103.4,16.9,101,14.5,98.1,14.5
	z M98.1,24.9c-2.8,0-5-2.3-5-5c0-2.8,2.3-5,5-5c2.8,0,5,2.2,5,5C103.1,22.7,100.8,24.9,98.1,24.9z"/>
<path class="st1" d="M98.1,15.4c-2.5,0-4.5,2-4.5,4.5s2,4.5,4.5,4.5s4.5-2,4.5-4.5S100.6,15.4,98.1,15.4z M98.1,24.2
	c-2.4,0-4.3-1.9-4.3-4.3c0-2.4,1.9-4.3,4.3-4.3c2.4,0,4.3,1.9,4.3,4.3C102.4,22.3,100.5,24.2,98.1,24.2z"/>
<path class="st1" d="M98.1,16c-2.1,0-3.8,1.8-3.8,3.9c0,2.1,1.7,3.8,3.8,3.8c2.1,0,3.8-1.8,3.8-3.9C101.9,17.7,100.2,16,98.1,16z
	 M98.1,23.5c-2,0-3.6-1.6-3.6-3.6s1.6-3.6,3.6-3.6s3.6,1.6,3.6,3.6S100.1,23.5,98.1,23.5z"/>
<path class="st1" d="M98.1,16.7c-1.7,0-3.1,1.4-3.1,3.1s1.4,3.1,3.1,3.1s3.1-1.4,3.1-3.1S99.8,16.7,98.1,16.7z M98.1,22.7
	c-1.6,0-2.9-1.3-2.9-2.9c0-1.6,1.3-2.9,2.9-2.9c1.6,0,2.9,1.4,2.9,2.9C101,21.4,99.7,22.7,98.1,22.7z"/>
<path class="st1" d="M98.5,19.6c0-0.4-0.1-0.7-0.3-0.9s-0.5-0.3-0.8-0.3c-0.2,0-0.4,0.1-0.6,0.2c-0.2,0.2-0.3,0.3-0.4,0.5
	c-0.1,0.2-0.1,0.5-0.1,0.7c0,0.4,0.1,0.7,0.3,0.9s0.5,0.3,0.9,0.3c0.3,0,0.6-0.1,0.9-0.3l-0.3-0.4c-0.1,0.1-0.2,0.2-0.3,0.2
	c-0.1,0.1-0.2,0.1-0.3,0.1c-0.2,0-0.3,0-0.4-0.1c-0.1-0.1-0.2-0.2-0.2-0.4h1.5C98.4,20,98.4,19.9,98.5,19.6z M96.9,19.6
	c0-0.2,0-0.3,0.1-0.4c0.1-0.1,0.2-0.1,0.3-0.1c0.3,0,0.4,0.1,0.4,0.5H96.9z"/>
<path class="st1" d="M100.1,19.4h-1.4v0.5h1.4V19.4z"/>
<path class="st1" d="M34.3,7.3c-0.2,0.1-0.5,0.2-0.7,0.4c4.4,1.5,7.6,5.8,7.6,10.7c0,6.2-5.1,11.3-11.3,11.3c-6,0-11-4.8-11.3-10.8
	c-0.2,0.2-0.5,0.4-0.7,0.7c0.6,6.1,5.7,10.9,12,10.9c6.6,0,12-5.4,12-12C41.9,13.4,38.7,9.1,34.3,7.3z"/>
<path class="st1" d="M32.5,8.3c-0.3,0.2-0.6,0.3-0.9,0.5c4.6,0.8,8,4.8,8.1,9.7c0,5.4-4.4,9.8-9.8,9.8s-9.8-4.4-9.8-9.8
	c0-0.4,0-0.7,0.1-1.1c-0.2,0.2-0.4,0.4-0.7,0.6c0,0.1,0,0.2,0,0.4c0,5.8,4.7,10.4,10.4,10.4s10.3-4.6,10.4-10.4
	C40.3,13.5,37,9.4,32.5,8.3z"/>
<path class="st1" d="M30,9.8c-0.3,0.2-0.6,0.4-0.8,0.5c0.2,0,0.5,0,0.7,0c4.5,0,8.2,3.7,8.2,8.2s-3.7,8.2-8.2,8.2s-8.2-3.7-8.2-8.2
	c0-1.1,0.2-2.1,0.6-3c-0.2,0.2-0.5,0.4-0.8,0.7c-0.2,0.7-0.3,1.5-0.3,2.3c0,4.8,3.9,8.7,8.7,8.7s8.7-3.9,8.7-8.7
	C38.6,13.7,34.8,9.8,30,9.8z"/>
<path class="st1" d="M29.9,11.5c-3.9,0-7,3.1-7,7s3.1,7,7,7c3.8,0,7-3.2,7-7C36.9,14.6,33.8,11.5,29.9,11.5z M29.9,25.1
	c-3.6,0-6.6-3-6.6-6.6s3-6.6,6.6-6.6s6.6,2.9,6.6,6.6C36.5,22.1,33.5,25.1,29.9,25.1z"/>
<path class="st1" d="M30.5,18.5c0-0.9-0.2-1.6-0.7-2.1c-0.5-0.6-1.1-0.8-1.9-0.8c-0.5,0-1,0.1-1.4,0.4c-0.4,0.3-0.7,0.7-0.9,1.1
	c-0.2,0.4-0.3,0.9-0.3,1.5c0,0.9,0.2,1.6,0.7,2.1s1.2,0.8,2.1,0.8c0.8,0,1.6-0.3,2.2-0.8l-0.7-0.9c-0.3,0.2-0.5,0.3-0.7,0.4
	c-0.2,0.1-0.4,0.1-0.6,0.1c-0.4,0-0.7-0.1-0.9-0.3s-0.3-0.5-0.4-1h3.4C30.4,18.8,30.4,18.6,30.5,18.5z M26.9,17.9
	c0-0.4,0.1-0.8,0.3-1c0.2-0.2,0.4-0.3,0.7-0.3c0.6,0,0.9,0.5,0.9,1.3H26.9z"/>
<path class="st1" d="M34.5,17.3h-3.3v1.3h3.3V17.3z"/>
<path class="st1" d="M40.3,107.5c0-1.4-0.4-2.5-1.1-3.3s-1.7-1.2-3-1.2c-0.8,0-1.6,0.2-2.2,0.6c-0.6,0.4-1.1,1-1.4,1.7
	s-0.5,1.5-0.5,2.4c0,1.4,0.3,2.6,1.1,3.4c0.8,0.9,1.9,1.3,3.3,1.3c1.2,0,2.4-0.4,3.4-1.2l-1.1-1.5c-0.4,0.3-0.8,0.5-1.1,0.6
	c-0.3,0.1-0.6,0.2-1,0.2c-0.6,0-1.1-0.1-1.4-0.4c-0.3-0.3-0.5-0.9-0.6-1.6h5.5C40.2,108.3,40.2,107.9,40.3,107.5z M37.6,106.8v0.1
	h-2.9c0.1-0.7,0.3-1.3,0.5-1.6c0.3-0.3,0.6-0.5,1.1-0.5C37.2,104.8,37.7,105.5,37.6,106.8L37.6,106.8z"/>
<path class="st1" d="M46.7,106h-5.3v2h5.3V106z"/>
<path class="st1" d="M68.5,21.2c0-1.5-0.4-2.7-1.1-3.5s-1.8-1.2-3.1-1.2c-0.9,0-1.7,0.2-2.3,0.6c-0.7,0.5-1.2,1.1-1.5,1.8
	c-0.3,0.7-0.5,1.6-0.5,2.5c0,1.5,0.4,2.6,1.2,3.5c0.8,0.9,1.9,1.3,3.4,1.3c1.3,0,2.5-0.4,3.6-1.3l-1.1-1.5c-0.4,0.3-0.8,0.5-1.1,0.6
	c-0.4,0.1-0.7,0.2-1.1,0.2c-0.6,0-1.1-0.2-1.4-0.5c-0.4-0.3-0.6-0.8-0.7-1.6h5.7V21.2z M65.8,20.5h-3.1c0.1-0.8,0.2-1.4,0.5-1.7
	s0.6-0.5,1.1-0.5C65.3,18.3,65.8,19,65.8,20.5L65.8,20.5z"/>
<path class="st1" d="M75.2,19.4h-5.5v2.1h5.5V19.4z"/>
<path class="st1" d="M31.2,56.8c0-1.5-0.4-2.7-1.2-3.6c-0.8-0.9-1.8-1.3-3.2-1.3c-0.9,0-1.7,0.3-2.4,0.7c-0.6,0.4-1.2,1-1.5,1.8
	c-0.3,0.8-0.5,1.6-0.5,2.6c0,1.6,0.4,2.8,1.2,3.7c0.8,0.9,2,1.4,3.5,1.4c1.4,0,2.6-0.4,3.7-1.3l-1.2-1.6c-0.5,0.3-0.8,0.5-1.2,0.6
	c-0.3,0.1-0.7,0.2-1.1,0.2c-0.6,0-1.1-0.2-1.5-0.5c-0.4-0.3-0.6-0.9-0.7-1.7H31C31,57.5,31,57.2,31.2,56.8z M28.4,56.1h-3.2
	c0.1-0.9,0.3-1.5,0.5-1.8s0.6-0.5,1.1-0.5C27.8,53.8,28.3,54.5,28.4,56.1L28.4,56.1L28.4,56.1z"/>
<path class="st1" d="M38,55.1h-5.7v2.2H38V55.1z"/>
</svg>
