<svg width="129" height="129" viewBox="0 0 129 129" fill="none" xmlns="http://www.w3.org/2000/svg">
<path d="M64.5 0.5C29.2 0.5 0.5 29.2 0.5 64.5C0.5 99.8 29.2 128.5 64.5 128.5C99.8 128.5 128.5 99.8 128.5 64.5C128.5 29.2 99.8 0.5 64.5 0.5Z" fill="#656D6D"/>
<path d="M89.8 73.6C89.6 72.2 87.9 71.1 87.5 70.8C85.2 69.3 82.7999 68.7 78.6999 67.6C75.9999 66.9 74.9 66.6 74.4 66.5C74.6 65.1 74.8999 63.5 75.1999 61.6C75.8999 57.3 76 56.3 75.8 55C75.7 54.3 75.5 53.8 75.4 52.6C75.2 50.8 75.3 49.9 75.3 49.3C75.2 48.1 74.3 46.4 70.4 44.4C70 43.7 69.5999 42.9 69.1999 42.2C67.3999 38.9 65.7 35.7 63.9 32.7C63.9 32.5 63.7999 32.2 63.7 31.8C63.4 30.9 63 30.3 62.7999 29.9C62.2999 29 62.7999 29.8 61.2 27.1C60.2 25.4 60 25 59.2999 23.8C58.8999 23.1 58.6 22.5 58.4 22.1C58.4 22 58.4 21.9 58.4 21.9C58.4 21.7 58.3999 21.5 58.2999 21.1C58.5999 21.1 58.8 21 58.9 20.9C59.2 20.7 59.2 20.5 59.7 20.1C59.7999 20 60 19.9 60.2 19.8C60.6 19.6 60.7 19.7 61.2 19.6C61.5 19.5 62 19.4 62.0999 19.1C62.0999 19.1 62.0999 18.9 62.0999 18.8C62 18.7 62 18.7 61.9 18.7C61.6 18.6 61.2999 18.7 61 18.8C60.4 19 60.2 19 60 19C59.7999 19 59.5 19 59.4 18.8C59.3 18.7 59.4 18.5 59.7 18.1C59.7 18.1 60.2 17.3 60.7 16.6C60.7 16.6 60.7999 16.4 60.7999 16.1C60.7999 15.9 60.7 15.9 60.7 15.8L60.5999 15.7C60.3999 15.7 60.2999 16.1 60 16.5C59.9 16.7 59.7 16.9 59.7 17C59.7 16.9 59.7 16.8 59.7 16.7C59.7 16.2 59.7 16 59.7 15.8C59.6 15.4 59.5999 15.4 59.5 15.3C59.4 15.3 59.2999 15.3 59.2 15.4C58.9 15.6 59.2 16 59 16.7C58.7999 17.5 58.5 17.9 58.5 17.9C58.4 18 58.2 18.4 57.7 19C57.5 19.2 57.3999 19.3 57.2999 19.4C57 19.6 56.8999 19.8 56.7999 19.8C56.1999 20.3 56 21.7 56.5 22.6C57.2999 24.3 57.7 25.6 57.9 26.6C58.1 27.6 58.3 28.8 58.9 30.3C59.1 30.8 59.2999 31.4 59.7999 32.1C60.0999 32.7 60.2999 32.8 60.5999 33.2C61.5 34.7 61.2999 35.1 62.0999 36.3C62.6999 37.2 63 37.4 63.4 38.3C63.6 38.7 63.7 39 63.7999 39.5C64.2 41 64.2 42 64.2999 42.8C64 42.5 63.7999 42.2 63.5 41.8C63 41.2 63 41.1 62 39.7C61.2 38.7 60.6 37.8 60.2 37.3C58.6 35.6 56.3 35 54.4 35.7C53.2 36.1 52.0999 37.1 51.5999 38.4C51.4999 38.6 51.5 38.8 51.4 39C51 41.2 50.5999 45.3 50.5999 45.3C50.5999 45.7 50.4 46.8 50.2 48.7C48.6 49.1 47.6999 49.4 46.2999 49.3C46.0999 49.3 46.1999 49.3 44.7999 49C42.2999 48.6 41.8999 48.6 40.0999 48.3C37.3999 47.8 37.4 47.7 36.2 47.6C34.7 47.5 33.5 47.8 32.7 47.9C32.3 47.9 31.9999 48.1 31.2999 48.4C30.7999 48.6 30.6 48.8 30.6 48.8C30.4 48.9 30 49.2 29.7 49.5C29.3 49.9 29.3 50 28.9 50.2C28.4 50.5 28.2 50.5 28.1 50.5C27.7 50.6 27.6 50.5 27 50.6C26.2 50.6 26.1 50.7 26.1 50.8C26.1 50.9 26.1 51 26.1 51C26.2 51.1 26.3 51.1 26.4 51.1C26.9 51.1 27.7999 51.1 27.7999 51.1C27.6999 51.1 27.4999 51.2 27.2999 51.3C26.9999 51.5 26.9 51.6 26.6 51.8C26.6 51.8 26.1999 52.1 25.7999 52.4C25.1999 52.8 24.8 52.8 24.7 53C24.7 53.1 24.9 53.3 25 53.3C25.2 53.4 25.5 53.3 26 53C26.3 52.9 26.3 52.8 26.5 52.7C26.8 52.6 27 52.6 27.1 52.6C27.1 52.7 26.9999 52.8 26.9 52.9C26.4 53.8 25.5 54 25.5 54.3C25.5 54.4 25.6 54.5 25.7 54.5C25.9 54.6 26.0999 54.5 26.2999 54.4C26.6999 54.1 26.9 53.9 27.6 53.3C27.7 53.2 27.6999 53.2 27.7999 53.1C28.1999 52.7 28.2 52.5 28.5 52.2C28.7 52 28.8 51.9 29 51.8C29.3 51.6 29.4 51.6 29.4 51.6C29.5999 51.5 29.8 51.5 29.9 51.5C29.9 51.6 29.8 51.7 29.7 51.9C29.6 52 29.4999 52.1 29.2999 52.4C28.8999 52.8 28.8999 52.9 28.7999 53C28.6999 53.2 28.6 53.4 28.7 53.6C28.7 53.7 28.6999 53.8 28.7999 53.8C28.9999 53.9 29.4 53.7 29.7 53.5C30.1 53.2 29.9999 52.9 30.4 52.5C30.5999 52.3 30.5999 52.3 30.9 52.1C31.7 51.5 32.1999 51 32.2999 50.4C32.2999 50.2 32.3 50 32.5 49.8C32.6 49.7 32.6 49.7 32.7 49.7C32.8 49.7 32.8999 49.7 33.0999 49.7C33.8999 49.8 34.2999 50.1 35.2999 50.4C35.4 50.4 35.9 50.6 37 50.9C37.7 51.1 38.3 51.3 38.4 51.3C39.6 51.6 41.9999 52.3 44.5999 52.4C45.3999 52.4 45.1 52.4 46.9 52.3C47.8 52.3 48.4999 52.2 49.0999 52.2C48.9999 53.1 49 53.6 49.4 54.1C50.3 55.3 52.4 55.1 53 55C54.2 54.2 54.6999 53 55.0999 52.3C55.1999 52.2 55.1999 52 55.2999 51.9C56.0999 51.8 56.7999 51.7 58.0999 51.7C58.5 51.7 58.9 51.7 59.2 51.7C59.9 51.9 60.9 52.2 62 52.8C62.7 53.2 63.4 53.6 64 54.3C65.2999 55.6 66.3 57.8 65.9 59.9C65.8 60.7 65.5 61.3 64.9 62.4C64.3 63.6 64.0999 63.8 63.5999 64.8C63.0999 65.7 62.5 66.9 62.4 68.4C62.3 69.1 62.2 71.5 63.7999 73C63.7999 73 63.9 73.1 64 73.2C64 73.5 64 74 63.9 74.5C63.7 75.8 63.2999 76.8 63.0999 77.2C62.3999 78.7 61.9 80.2 61.2 81.7C59.7999 84.9 60.2 84.6 59.4 86.4C58.1 89 57.6 89 56.2 91.7C56 92.1 55.5 93.1 54.4 96C53.4 98.8 52.9 100.2 52.7999 100.6C52.7999 100.6 52.6999 101.2 52.2999 102.1C52.1999 102.2 52.1 102.5 51.9 102.6C51.7 102.8 51.6 102.7 51 102.9C50.6 103 50.2999 103.1 50 103.4C49.7 103.6 49.6999 103.9 49.5999 104C49.5999 104.1 49.3999 104.5 49.5999 104.8C49.6999 105 49.8 105.1 49.9 105.2C50.7 105.9 50.4 107.6 50.4 108C50.3 108.5 50.2 108.9 50.2 109C49.9 109.8 49.4999 110 49.0999 110.7C48.8999 111 48.7 111.6 48.7 112.3C48.7 112.4 48.7999 112.6 49 112.9C49.2999 113.2 49.7999 113.2 49.7999 113.2C50.5 112.6 51.6 111.8 52.5 110.4C53.1 109.6 53.4 108.9 53.9 107.8C54.7 105.9 54.7 105.4 55.7 103.3C55.8 103 56.1999 102.3 56.5999 101.4C57.2999 100.1 57.7 99.5 59 97.4C60.0999 95.6 60.7 94.7 61 94.2C61.5999 93 62 92.2 62.7999 90.8C63.2 90.1 63.5 89.7 63.7 89.4C64.9 87.7 65.5999 86.2 67.1999 83.2C68.3999 80.9 69.3 79 69.8 77.9C70.4 76.6 71 75.4 71.3 74.5C72.8 74.6 74.3999 74.6 76.0999 74.6C77.5999 74.6 79 74.5 80.3 74.4C80 74.6 79.5999 74.9 79.1999 75.3C77.9999 76.3 77.3999 77.2 76.1999 78.8C76.1999 78.8 74.3 81.2 72.3 83.4C72.1 83.6 71.6 84.1 70.8 84.5C70.6 84.6 70.2999 84.7 70.1999 84.8C70.0999 84.8 70.1 84.7 69.9 84.7C69.9 84.7 69.6 84.6 69.3 84.7C69.2 84.7 69.0999 84.7 69 84.8C67.9 85.2 67.3 86.4 67.3 87.5C67.2 89.7 65.7 91.8 64.4 93.4C64.3 93.5 63.8999 94.1 64.0999 94.6C64.2999 95.1 65.0999 95.4 65.6999 95.3C66.2999 95.2 66.7999 94.7 67 94.4C67.7999 93.4 68.7999 92.5 69.5999 91.5C69.7999 91.3 71.1 89.6 72.8 87.9C73.8 86.9 74.7 86.2 75.5 85.6C77.0999 84.4 77.1999 84.4 79.1999 83C81.0999 81.6 82.0999 80.9 83 80.1C83.7 79.5 84.1999 78.9 85.1999 78.3C85.8999 77.9 86.1 78 86.8 77.5C87.7 76.9 88.1999 76.2 88.5999 75.8C89.0999 75.1 89.2 74.8 89.3 74.7C89.7 75 90 74.4 89.8 73.6ZM60.9 46.5C60.9 46.6 60.9 46.6 60.9 46.5C60.9 46.6 60.9 46.6 60.9 46.5C60.5 46.6 59.8999 46.6 59.2999 46.7C59.3999 46.3 59.5 46 59.5999 45.7C60.1999 45.8 60.5 45.8 60.7 46.1C60.7999 46.3 60.8 46.4 60.9 46.5Z" fill="white"/>
</svg>
