<svg width="129" height="129" viewBox="0 0 129 129" fill="none" xmlns="http://www.w3.org/2000/svg">
<path d="M64.5 0.5C99.8 0.5 128.5 29.2 128.5 64.5C128.5 99.8 99.8 128.5 64.5 128.5C29.2 128.5 0.5 99.8 0.5 64.5C0.5 29.2 29.2 0.5 64.5 0.5Z" fill="#77e0a1"/>
<path d="M64.5 66.4C53.3 66.4 44.2 57.1 44.2 46C44.2 36.1 52.1 29.8 52.2 29.8L53.1 30.9C53 31 45.6 36.7 45.6 45.9C45.6 56.3 54.1 65.1 64.4 65.1C74.7 65.1 83.3 56.5 83.3 46.5H84.7C84.8 56.5 75.7 66.4 64.5 66.4Z" fill="white"/>
<path d="M68.8 26.6C68.8 29 66.9 30.9 64.5 30.9C62.1 30.9 60.2 29 60.2 26.6C60.2 24.2 62.1 22.3 64.5 22.3C66.9 22.3 68.8 24.2 68.8 26.6Z" fill="#77e0a1"/>
<path d="M64.5 31.6C61.8 31.6 59.5 29.4 59.5 26.6C59.5 23.9 61.7 21.6 64.5 21.6C67.2 21.6 69.5 23.8 69.5 26.6C69.5 29.3 67.2 31.6 64.5 31.6ZM64.5 23C62.5 23 60.9 24.6 60.9 26.6C60.9 28.6 62.5 30.2 64.5 30.2C66.5 30.2 68.1 28.6 68.1 26.6C68.1 24.6 66.5 23 64.5 23Z" fill="white"/>
<path d="M53.7 29.3C55.4 31 55.4 33.7 53.7 35.3C52 37 49.3 37 47.7 35.3C46.1 33.6 46 30.9 47.7 29.3C49.3 27.6 52 27.6 53.7 29.3Z" fill="#77e0a1"/>
<path d="M50.7 37.3C49.4 37.3 48.1 36.8 47.2 35.8C45.3 33.9 45.3 30.7 47.2 28.8C48.1 27.9 49.4 27.3 50.7 27.3C52 27.3 53.3 27.8 54.2 28.8C55.1 29.7 55.7 31 55.7 32.3C55.7 33.6 55.2 34.9 54.2 35.8C53.2 36.8 52 37.3 50.7 37.3ZM50.7 28.8C49.7 28.8 48.9 29.2 48.2 29.8C46.8 31.2 46.8 33.4 48.2 34.8C48.9 35.5 49.8 35.8 50.7 35.8C51.6 35.8 52.5 35.4 53.2 34.8C53.9 34.1 54.2 33.2 54.2 32.3C54.2 31.3 53.8 30.5 53.2 29.8C52.5 29.1 51.6 28.8 50.7 28.8Z" fill="white"/>
<path d="M44.9 41.9C47.3 41.9 49.2 43.8 49.2 46.2C49.2 48.6 47.3 50.5 44.9 50.5C42.5 50.5 40.6 48.6 40.6 46.2C40.6 43.8 42.6 41.9 44.9 41.9Z" fill="#77e0a1"/>
<path d="M44.9 51.1C42.2 51.1 39.9 48.9 39.9 46.1C39.9 43.4 42.1 41.1 44.9 41.1C47.6 41.1 49.9 43.3 49.9 46.1C49.9 48.9 47.7 51.1 44.9 51.1ZM44.9 42.6C42.9 42.6 41.3 44.2 41.3 46.2C41.3 48.2 42.9 49.8 44.9 49.8C46.9 49.8 48.5 48.2 48.5 46.2C48.5 44.2 46.9 42.6 44.9 42.6Z" fill="white"/>
<path d="M47.6 57C49.3 55.3 52 55.3 53.6 57C55.3 58.7 55.3 61.4 53.6 63C51.9 64.7 49.2 64.7 47.6 63C46 61.4 46 58.7 47.6 57Z" fill="#77e0a1"/>
<path d="M50.7 65C49.4 65 48.1 64.5 47.2 63.5C45.3 61.6 45.3 58.4 47.2 56.5C48.1 55.6 49.4 55 50.7 55C52 55 53.3 55.5 54.2 56.5C55.1 57.4 55.7 58.7 55.7 60C55.7 61.3 55.2 62.6 54.2 63.5C53.2 64.5 52 65 50.7 65ZM50.7 56.5C49.7 56.5 48.9 56.9 48.2 57.5C46.8 58.9 46.8 61.1 48.2 62.5C48.9 63.2 49.8 63.5 50.7 63.5C51.6 63.5 52.5 63.1 53.2 62.5C53.9 61.8 54.2 60.9 54.2 60C54.2 59 53.8 58.2 53.2 57.5C52.5 56.8 51.6 56.5 50.7 56.5Z" fill="white"/>
<path d="M60.2 65.7C60.2 63.3 62.1 61.4 64.5 61.4C66.9 61.4 68.8 63.3 68.8 65.7C68.8 68.1 66.9 70 64.5 70C62.1 70 60.2 68.1 60.2 65.7Z" fill="#77e0a1"/>
<path d="M64.5 70.7C61.8 70.7 59.5 68.5 59.5 65.7C59.5 63 61.7 60.7 64.5 60.7C67.2 60.7 69.5 62.9 69.5 65.7C69.5 68.5 67.2 70.7 64.5 70.7ZM64.5 62.2C62.5 62.2 60.9 63.8 60.9 65.8C60.9 67.8 62.5 69.4 64.5 69.4C66.5 69.4 68.1 67.8 68.1 65.8C68.1 63.8 66.5 62.2 64.5 62.2Z" fill="white"/>
<path d="M75.3 63C73.6 61.3 73.6 58.6 75.3 57C77 55.3 79.7 55.3 81.3 57C82.9 58.7 83 61.4 81.3 63C79.7 64.7 77 64.7 75.3 63Z" fill="#77e0a1"/>
<path d="M78.3 65C77 65 75.7 64.5 74.8 63.5C73.9 62.6 73.3 61.3 73.3 60C73.3 58.7 73.8 57.4 74.8 56.5C75.7 55.6 77 55 78.3 55C79.6 55 80.9 55.5 81.8 56.5C83.7 58.4 83.7 61.6 81.8 63.5C80.9 64.5 79.7 65 78.3 65ZM78.3 56.5C77.4 56.5 76.5 56.9 75.8 57.5C75.1 58.2 74.8 59.1 74.8 60C74.8 60.9 75.2 61.8 75.8 62.5C76.5 63.2 77.4 63.5 78.3 63.5C79.2 63.5 80.1 63.1 80.8 62.5C82.2 61.1 82.2 58.9 80.8 57.5C80.2 56.8 79.3 56.5 78.3 56.5Z" fill="white"/>
<path d="M84.1 50.4C81.7 50.4 79.8 48.5 79.8 46.1C79.8 43.7 81.7 41.8 84.1 41.8C86.5 41.8 88.4 43.7 88.4 46.1C88.4 48.5 86.4 50.4 84.1 50.4Z" fill="#77e0a1"/>
<path d="M84.1 51.1C81.4 51.1 79.1 48.9 79.1 46.1C79.1 43.4 81.3 41.1 84.1 41.1C86.8 41.1 89.1 43.3 89.1 46.1C89.1 48.9 86.8 51.1 84.1 51.1ZM84.1 42.6C82.1 42.6 80.5 44.2 80.5 46.2C80.5 48.2 82.1 49.8 84.1 49.8C86.1 49.8 87.7 48.2 87.7 46.2C87.6 44.2 86 42.6 84.1 42.6Z" fill="white"/>
<path d="M81.4 35.3C79.7 37 77 37 75.4 35.3C73.7 33.6 73.7 30.9 75.4 29.3C77.1 27.7 79.8 27.6 81.4 29.3C83 31 83 33.7 81.4 35.3Z" fill="#77e0a1"/>
<path d="M78.3 37.3C77 37.3 75.7 36.8 74.8 35.8C73.9 34.9 73.3 33.6 73.3 32.3C73.3 31 73.8 29.7 74.8 28.8C75.7 27.9 77 27.3 78.3 27.3C79.6 27.3 80.9 27.8 81.8 28.8C83.7 30.7 83.7 33.9 81.8 35.8C80.9 36.8 79.7 37.3 78.3 37.3ZM78.3 28.8C77.4 28.8 76.5 29.2 75.8 29.8C75.1 30.5 74.8 31.4 74.8 32.3C74.8 33.2 75.2 34.1 75.8 34.8C76.5 35.5 77.4 35.8 78.3 35.8C79.2 35.8 80.1 35.4 80.8 34.8C82.2 33.4 82.2 31.2 80.8 29.8C80.2 29.1 79.3 28.8 78.3 28.8Z" fill="white"/>
<path d="M62.5 106.5H49.4C49.1 105 48.5 103.1 47.3 101.1C46.3 99.4 45.1 98.2 43.4 96.6C37.3 91.1 35.7 92 33.7 88.9C32.3 86.7 32 84.6 31.4 80.2C31.1 77.9 31 76.1 31 72.5C31 68.9 30.9 64.9 31.5 59.7C31.8 56.7 32.3 54.2 32.6 52.4C32.8 52 33.1 50.8 34.1 50.7C35.4 50.5 36.7 52.4 37.5 55.6V66.4C37.5 66.9 37.8 67.4 37.8 67.9C38.1 67.9 38.6 68 39.1 68.1C40.1 68.5 40.6 69.3 40.8 69.6C41.9 71.4 42.5 72.3 44 75.1C44.9 76.9 47 78.3 51.2 81.2C56.7 85 56.5 83.9 58 85.4C61.1 88.7 61.6 93.2 62.2 100.5C62.5 103.1 62.5 105 62.5 106.5Z" fill="white"/>
<path d="M42.6 70.7C41.4 69.3 39.2 67.4 37.2 68.2C35.7 68.8 35.4 70.8 35.7 72.2C36.5 75.4 39.6 78.5 41.5 81C44.2 84.4 45.7 85.9 48.4 89.4C48.6 89.7 49.9 91.4 49.6 91.7C49.4 91.9 47.9 91.1 47.6 90.9C47.4 90.8 47.2 90.7 47.2 90.6C43 85.6 38.5 80.6 35.2 75C33.9 72.8 33.3 69.9 35 67.7C37.5 64.5 41.8 67.2 43.8 69.4C44.5 70.3 43.3 71.5 42.6 70.7Z" fill="#77e0a1"/>
<path d="M66.5 106.5H79.7C80 105 80.6 103.1 81.8 101.1C82.8 99.4 84 98.2 85.7 96.6C91.8 91.1 93.4 92 95.4 88.9C96.8 86.7 97.1 84.6 97.7 80.2C98 77.9 98.1 76.1 98.1 72.5C98.1 68.9 98.2 64.9 97.6 59.7C97.3 56.7 96.8 54.2 96.5 52.4C96.3 52 95.5 50.8 94.5 50.7C93.2 50.5 91.6 52.4 90.6 55.6V66.4C90.6 66.9 90.8 67.4 90.8 67.9C90.5 67.9 90.2 68 89.8 68.1C88.8 68.5 88.4 69.3 88.2 69.6C87.1 71.4 86.5 72.3 85 75.1C84.1 76.9 82 78.3 77.8 81.2C72.3 85 72.5 83.9 71 85.4C67.9 88.7 67.5 93.2 66.8 100.5C66.5 103.1 66.5 105 66.5 106.5Z" fill="white"/>
<path d="M86.4 70.7C87.6 69.3 89.8 67.4 91.8 68.2C93.2 68.8 93.6 70.8 93.3 72.2C92.5 75.4 89.4 78.5 87.5 81C84.8 84.4 83.3 85.9 80.6 89.4C80.4 89.7 79.1 91.4 79.4 91.7C79.6 91.9 81.1 91.1 81.4 90.9C81.6 90.8 81.8 90.7 81.8 90.6C86 85.6 90.5 80.6 93.8 75C95.1 72.8 95.7 69.9 94 67.7C91.5 64.5 87.2 67.2 85.2 69.4C84.5 70.3 85.7 71.5 86.4 70.7Z" fill="#77e0a1"/>
</svg>
