<svg width="129" height="129" viewBox="0 0 129 129" fill="none" xmlns="http://www.w3.org/2000/svg">
<path d="M64.5 0.5C99.8 0.5 128.5 29.2 128.5 64.5C128.5 99.8 99.8 128.5 64.5 128.5C29.2 128.5 0.5 99.8 0.5 64.5C0.5 29.2 29.2 0.5 64.5 0.5Z" fill="#77e0a1"/>
<path d="M96.2 85.9C96.2 84.4 96.2 83.2 96.1 82H98.4L98.6 84.4H98.7C99.4 83 101.1 81.7 103.5 81.7C105.5 81.7 108.6 82.9 108.6 87.9V96.5H106V88.1C106 85.8 105.1 83.8 102.6 83.8C100.9 83.8 99.5 85 99.1 86.5C99 86.8 98.9 87.3 98.9 87.7V96.5H96.3V85.9H96.2Z" fill="white"/>
<path d="M102.3 104.9C93.6 104.9 86.5 97.8 86.5 89.1C86.5 80.4 93.6 73.3 102.3 73.3C111 73.3 118.1 80.4 118.1 89.1C118.1 97.8 111 104.9 102.3 104.9ZM102.3 74.9C94.4 74.9 88.1 81.3 88.1 89.1C88.1 96.9 94.5 103.3 102.3 103.3C110.1 103.3 116.5 97 116.5 89.1C116.5 81.2 110.2 74.9 102.3 74.9Z" fill="white"/>
<path d="M27.9 93.9C27.9 92.4 27.9 91.2 27.8 90H30.1L30.2 92.4H30.3C31 91 32.7 89.7 35.1 89.7C37.1 89.7 40.2 90.9 40.2 95.9V104.6H37.6V96.2C37.6 93.9 36.7 91.9 34.2 91.9C32.5 91.9 31.1 93.1 30.7 94.6C30.6 94.9 30.5 95.4 30.5 95.8V104.5H27.9V93.9Z" fill="white"/>
<path d="M34 112.9C25.3 112.9 18.2 105.8 18.2 97.1C18.2 88.4 25.3 81.3 34 81.3C42.7 81.3 49.8 88.4 49.8 97.1C49.8 105.8 42.7 112.9 34 112.9ZM34 82.9C26.1 82.9 19.8 89.3 19.8 97.1C19.8 104.9 26.2 111.3 34 111.3C41.8 111.3 48.2 104.9 48.2 97.1C48.2 89.3 41.9 82.9 34 82.9Z" fill="white"/>
<path d="M59.5 111.6C59.5 110.8 59.5 110.2 59.4 109.6H60.6L60.7 110.8C61.1 110.1 61.9 109.4 63.1 109.4C64.1 109.4 65.7 110 65.7 112.5V116.8H64.4V112.6C64.4 111.4 64 110.5 62.7 110.5C61.8 110.5 61.2 111.1 60.9 111.8C60.8 112 60.8 112.2 60.8 112.4V116.8H59.5V111.6Z" fill="white"/>
<path d="M62.5 121.1C58.2 121.1 54.6 117.6 54.6 113.2C54.6 108.9 58.1 105.3 62.5 105.3C66.8 105.3 70.4 108.8 70.4 113.2C70.4 117.6 66.9 121.1 62.5 121.1ZM62.5 106.1C58.6 106.1 55.4 109.3 55.4 113.2C55.4 117.1 58.6 120.3 62.5 120.3C66.4 120.3 69.6 117.1 69.6 113.2C69.6 109.3 66.5 106.1 62.5 106.1Z" fill="white"/>
<path d="M102.4 34.9C102.4 34.1 102.4 33.5 102.3 32.9H103.5L103.6 34.1C104 33.4 104.8 32.7 106 32.7C107 32.7 108.6 33.3 108.6 35.8V40.1H107.3V35.9C107.3 34.7 106.9 33.8 105.6 33.8C104.7 33.8 104.1 34.4 103.8 35.1C103.7 35.3 103.7 35.5 103.7 35.7V40.1H102.4V34.9Z" fill="white"/>
<path d="M105.4 44.4C101.1 44.4 97.5 40.9 97.5 36.5C97.5 32.2 101 28.6 105.4 28.6C109.7 28.6 113.3 32.1 113.3 36.5C113.3 40.8 109.8 44.4 105.4 44.4ZM105.4 29.4C101.5 29.4 98.3 32.6 98.3 36.5C98.3 40.4 101.5 43.6 105.4 43.6C109.3 43.6 112.5 40.4 112.5 36.5C112.5 32.6 109.4 29.4 105.4 29.4Z" fill="white"/>
<path d="M76.2 15.2C76.2 14.7 76.2 14.2 76.2 13.8H77.1L77.2 14.7C77.5 14.2 78.1 13.7 79 13.7C79.7 13.7 80.9 14.1 80.9 16V19.2H79.9V16.1C79.9 15.2 79.6 14.5 78.7 14.5C78.1 14.5 77.6 14.9 77.4 15.5C77.4 15.6 77.3 15.8 77.3 16V19.2H76.3V15.2H76.2Z" fill="white"/>
<path d="M78.5 22.1C75.3 22.1 72.7 19.5 72.7 16.3C72.7 13.1 75.3 10.5 78.5 10.5C81.7 10.5 84.3 13.1 84.3 16.3C84.3 19.5 81.7 22.1 78.5 22.1ZM78.5 11.1C75.6 11.1 73.3 13.4 73.3 16.3C73.3 19.2 75.6 21.5 78.5 21.5C81.4 21.5 83.7 19.2 83.7 16.3C83.7 13.4 81.4 11.1 78.5 11.1Z" fill="white"/>
<path d="M116.6 59.6C116.6 59.1 116.6 58.6 116.6 58.2H117.5L117.6 59.1C117.9 58.6 118.5 58.1 119.4 58.1C120.1 58.1 121.3 58.5 121.3 60.4V63.6H120.3V60.5C120.3 59.6 120 58.9 119.1 58.9C118.5 58.9 118 59.3 117.8 59.9C117.8 60 117.7 60.2 117.7 60.4V63.6H116.7V59.6H116.6Z" fill="white"/>
<path d="M118.9 66.5C115.7 66.5 113.1 63.9 113.1 60.7C113.1 57.5 115.7 54.9 118.9 54.9C122.1 54.9 124.7 57.5 124.7 60.7C124.6 63.9 122 66.5 118.9 66.5ZM118.9 55.5C116 55.5 113.7 57.8 113.7 60.7C113.7 63.6 116 65.9 118.9 65.9C121.8 65.9 124.1 63.6 124.1 60.7C124.1 57.8 121.7 55.5 118.9 55.5Z" fill="white"/>
<path d="M14 66.7C14 66.4 14 66.1 14 65.8H14.5V66.3C14.7 66 15 65.7 15.6 65.7C16 65.7 16.7 66 16.7 67.1V69H16.1V67.2C16.1 66.7 15.9 66.3 15.4 66.3C15 66.3 14.7 66.6 14.6 66.9C14.6 67 14.6 67.1 14.6 67.2V69.1H14V66.7Z" fill="white"/>
<path d="M15.3 70.9C13.4 70.9 11.8 69.4 11.8 67.4C11.8 65.5 13.3 63.9 15.3 63.9C17.2 63.9 18.8 65.4 18.8 67.4C18.8 69.3 17.2 70.9 15.3 70.9ZM15.3 64.3C13.6 64.3 12.2 65.7 12.2 67.4C12.2 69.1 13.6 70.5 15.3 70.5C17 70.5 18.4 69.1 18.4 67.4C18.4 65.7 17 64.3 15.3 64.3Z" fill="white"/>
<path d="M37.2 16.8C37.2 16.5 37.2 16.2 37.2 15.9H37.7V16.4C37.9 16.1 38.2 15.8 38.8 15.8C39.2 15.8 39.9 16.1 39.9 17.2V19.1H39.3V17.3C39.3 16.8 39.1 16.4 38.6 16.4C38.2 16.4 37.9 16.7 37.8 17C37.8 17.1 37.8 17.2 37.8 17.3V19.2H37.2V16.8Z" fill="white"/>
<path d="M38.5 21C36.6 21 35 19.5 35 17.5C35 15.6 36.5 14 38.5 14C40.4 14 42 15.5 42 17.5C42 19.4 40.5 21 38.5 21ZM38.5 14.4C36.8 14.4 35.4 15.8 35.4 17.5C35.4 19.2 36.8 20.6 38.5 20.6C40.2 20.6 41.6 19.2 41.6 17.5C41.7 15.8 40.3 14.4 38.5 14.4Z" fill="white"/>
<path d="M72.1 94.3C72.1 94 72.1 93.7 72.1 93.4H72.6V93.9C72.8 93.6 73.1 93.3 73.7 93.3C74.1 93.3 74.8 93.6 74.8 94.7V96.6H74.2V94.8C74.2 94.3 74 93.9 73.5 93.9C73.1 93.9 72.8 94.2 72.7 94.5C72.7 94.6 72.7 94.7 72.7 94.8V96.7H72.1V94.3Z" fill="white"/>
<path d="M73.4 98.5C71.5 98.5 69.9 97 69.9 95C69.9 93.1 71.4 91.5 73.4 91.5C75.3 91.5 76.9 93.1 76.9 95C76.9 96.9 75.3 98.5 73.4 98.5ZM73.4 91.9C71.7 91.9 70.3 93.3 70.3 95C70.3 96.7 71.7 98.1 73.4 98.1C75.1 98.1 76.5 96.7 76.5 95C76.5 93.3 75.1 91.9 73.4 91.9Z" fill="white"/>
<path d="M16.9 42.6C16.9 41.8 16.9 41.2 16.8 40.6H18L18.1 41.8C18.5 41.1 19.3 40.4 20.5 40.4C21.5 40.4 23.1 41 23.1 43.5V47.8H21.8V43.6C21.8 42.4 21.4 41.5 20.1 41.5C19.2 41.5 18.6 42.1 18.3 42.8C18.2 43 18.2 43.2 18.2 43.4V47.8H16.9V42.6Z" fill="white"/>
<path d="M19.9 52.1C15.6 52.1 12 48.6 12 44.2C12 39.9 15.5 36.3 19.9 36.3C24.3 36.3 27.8 39.8 27.8 44.2C27.8 48.6 24.3 52.1 19.9 52.1ZM19.9 37.1C16 37.1 12.8 40.3 12.8 44.2C12.8 48.1 16 51.3 19.9 51.3C23.8 51.3 27 48.1 27 44.2C27 40.3 23.9 37.1 19.9 37.1Z" fill="white"/>
<path d="M94 53.7C94 69.9 80.9 82.9 64.8 82.9C48.7 82.9 35.5 69.9 35.5 53.7C35.5 37.5 48.6 24.5 64.7 24.5C80.8 24.5 94 37.6 94 53.7Z" fill="#77e0a1"/>
<path d="M64.7 84.1C56.6 84.1 49 80.9 43.2 75.2C37.4 69.5 34.3 61.8 34.3 53.7C34.3 45.6 37.5 38 43.2 32.2C48.9 26.4 56.6 23.3 64.7 23.3C72.8 23.3 80.5 26.5 86.2 32.3C91.9 38.1 95.1 45.7 95.1 53.8C95.1 61.9 92 69.5 86.2 75.2C80.4 80.9 72.9 84.1 64.7 84.1ZM64.7 25.6C49.2 25.6 36.6 38.2 36.6 53.7C36.6 69.2 49.2 81.8 64.7 81.8C80.2 81.8 92.8 69.2 92.8 53.7C92.8 38.2 80.3 25.6 64.7 25.6Z" fill="white"/>
<path d="M52.8 47.6C52.8 44.7 52.7 42.3 52.6 39.9H57.2L57.5 44.6H57.6C59 41.9 62.3 39.3 67 39.3C70.9 39.3 77 41.6 77 51.4V68.3H71.9V51.9C71.9 47.3 70.2 43.5 65.3 43.5C61.9 43.5 59.3 45.9 58.4 48.8C58.2 49.4 58 50.3 58 51.2V68.2H52.9V47.6H52.8Z" fill="white"/>
</svg>
